<svg width="24" height="25" viewBox="0 0 24 25" fill="none" xmlns="http://www.w3.org/2000/svg">
<path d="M11.007 22H9.605C6.02 22 4.228 22 3.114 20.865C2 19.73 2 17.903 2 14.25C2 10.597 2 8.77 3.114 7.635C4.228 6.5 6.02 6.5 9.605 6.5H13.408C16.993 6.5 18.786 6.5 19.9 7.635C20.757 8.508 20.954 9.791 21 12V13.5" stroke="#E10613" stroke-width="1.5" stroke-linecap="round" stroke-linejoin="round"/>
<path d="M19 19H16M16 22C15.2044 22 14.4413 21.6839 13.8787 21.1213C13.3161 20.5587 13 19.7956 13 19C13 18.2044 13.3161 17.4413 13.8787 16.8787C14.4413 16.3161 15.2044 16 16 16M19 22C19.7956 22 20.5587 21.6839 21.1213 21.1213C21.6839 20.5587 22 19.7956 22 19C22 18.2044 21.6839 17.4413 21.1213 16.8787C20.5587 16.3161 19.7956 16 19 16M16 6.5L15.9 6.19C15.405 4.65 15.158 3.88 14.569 3.44C13.979 3 13.197 3 11.631 3H11.368C9.803 3 9.02 3 8.431 3.44C7.841 3.88 7.594 4.65 7.099 6.19L7 6.5" stroke="#E10613" stroke-width="1.5" stroke-linecap="round" stroke-linejoin="round"/>
</svg>
